<svg width="40" height="40" viewBox="0 0 40 40" fill="none" xmlns="http://www.w3.org/2000/svg">
<circle cx="20" cy="20" r="20" fill="#27272A"/>
<path d="M27.5495 21.1525C31.5694 21.7662 34.4464 25.7304 32.0102 28.9864V28.9864C30.5324 30.9615 28.5903 32.5416 26.3559 33.5868C24.1216 34.6321 21.6639 35.1101 19.2006 34.9787C16.7374 34.8472 14.3446 34.1103 12.2341 32.8332C10.1237 31.5561 8.36079 29.7782 7.10158 27.6571C5.84237 25.5359 5.12571 23.1369 5.01509 20.6727C4.90447 18.2084 5.4033 15.7548 6.4674 13.5294V13.5294C8.22158 9.86071 13.0681 10.5703 15.4766 13.8468L17.5466 16.6626C19.1175 18.7995 21.4729 20.2249 24.0947 20.6251L27.5495 21.1525Z" fill="#FFF7F8"/>
<path d="M27.1719 17.2132C30.8702 17.7778 34.5018 15.0158 32.9166 11.6271V11.6271C31.9528 9.56692 30.3998 7.83877 28.4538 6.66121C26.5079 5.48365 24.2565 4.90957 21.9843 5.01157V5.01157C18.2469 5.17934 17.4849 9.67782 19.7008 12.6921L20.505 13.7861C21.7824 15.5238 23.6977 16.6828 25.8297 17.0083L27.1719 17.2132Z" fill="#818182"/>
</svg>
